<?xml version="1.0" encoding="UTF-8" standalone="no"?>
<!DOCTYPE svg PUBLIC "-//W3C//DTD SVG 1.1//EN"
 "http://www.w3.org/Graphics/SVG/1.1/DTD/svg11.dtd">
<!-- Generated by graphviz version 2.43.0 (0)
 -->
<!-- Title: G Pages: 1 -->
<svg width="731pt" height="246pt"
 viewBox="0.00 0.00 731.20 246.20" xmlns="http://www.w3.org/2000/svg" xmlns:xlink="http://www.w3.org/1999/xlink">
<g id="graph0" class="graph" transform="scale(1 1) rotate(0) translate(21.6 224.6)">
<title>시간 요구에 따른 첫 설계 판단</title><desc>교재 저자 작성 개념도. 시간 요구에 따른 첫 설계 판단의 구성과 흐름.</desc>
<polygon fill="#ffffff" stroke="transparent" points="-21.6,21.6 -21.6,-224.6 709.6,-224.6 709.6,21.6 -21.6,21.6"/>
<!-- n0 -->
<g id="node1" class="node">
<title>n0</title>
<path fill="#edf5f7" stroke="#267882" d="M90,-154.5C90,-154.5 12,-154.5 12,-154.5 6,-154.5 0,-148.5 0,-142.5 0,-142.5 0,-129.5 0,-129.5 0,-123.5 6,-117.5 12,-117.5 12,-117.5 90,-117.5 90,-117.5 96,-117.5 102,-123.5 102,-129.5 102,-129.5 102,-142.5 102,-142.5 102,-148.5 96,-154.5 90,-154.5"/>
<text text-anchor="middle" x="51" y="-132.3" font-family="Noto Sans CJK KR" font-size="14.00" fill="#14343b">허용 지연은?</text>
</g>
<!-- n1 -->
<g id="node2" class="node">
<title>n1</title>
<path fill="#edf5f7" stroke="#267882" d="M263.5,-203C263.5,-203 179.5,-203 179.5,-203 173.5,-203 167.5,-197 167.5,-191 167.5,-191 167.5,-163 167.5,-163 167.5,-157 173.5,-151 179.5,-151 179.5,-151 263.5,-151 263.5,-151 269.5,-151 275.5,-157 275.5,-163 275.5,-163 275.5,-191 275.5,-191 275.5,-197 269.5,-203 263.5,-203"/>
<text text-anchor="middle" x="221.5" y="-180.8" font-family="Noto Sans CJK KR" font-size="14.00" fill="#14343b">시간·일 단위</text>
<text text-anchor="middle" x="221.5" y="-165.8" font-family="Noto Sans CJK KR" font-size="14.00" fill="#14343b">단일 배치부터</text>
</g>
<!-- n0&#45;&gt;n1 -->
<g id="edge1" class="edge">
<title>n0&#45;&gt;n1</title>
<path fill="none" stroke="#58717a" d="M102.1,-148.19C120.26,-152.61 140.96,-157.65 159.92,-162.26"/>
<polygon fill="#58717a" stroke="#58717a" points="159.46,-164.85 167.37,-164.07 160.7,-159.75 159.46,-164.85"/>
</g>
<!-- n2 -->
<g id="node3" class="node">
<title>n2</title>
<path fill="#edf5f7" stroke="#267882" d="M289,-122C289,-122 154,-122 154,-122 148,-122 142,-116 142,-110 142,-110 142,-82 142,-82 142,-76 148,-70 154,-70 154,-70 289,-70 289,-70 295,-70 301,-76 301,-82 301,-82 301,-110 301,-110 301,-116 295,-122 289,-122"/>
<text text-anchor="middle" x="221.5" y="-99.8" font-family="Noto Sans CJK KR" font-size="14.00" fill="#14343b">초·분 단위</text>
<text text-anchor="middle" x="221.5" y="-84.8" font-family="Noto Sans CJK KR" font-size="14.00" fill="#14343b">스트림 상태 운영 가능?</text>
</g>
<!-- n0&#45;&gt;n2 -->
<g id="edge2" class="edge">
<title>n0&#45;&gt;n2</title>
<path fill="none" stroke="#58717a" d="M102.1,-124.11C112.36,-121.67 123.44,-119.04 134.56,-116.4"/>
<polygon fill="#58717a" stroke="#58717a" points="135.18,-118.95 141.87,-114.67 133.96,-113.84 135.18,-118.95"/>
</g>
<!-- n5 -->
<g id="node6" class="node">
<title>n5</title>
<path fill="#edf5f7" stroke="#267882" d="M676,-133C676,-133 554,-133 554,-133 548,-133 542,-127 542,-121 542,-121 542,-93 542,-93 542,-87 548,-81 554,-81 554,-81 676,-81 676,-81 682,-81 688,-87 688,-93 688,-93 688,-121 688,-121 688,-127 682,-133 676,-133"/>
<text text-anchor="middle" x="615" y="-110.8" font-family="Noto Sans CJK KR" font-size="14.00" fill="#14343b">단계·모델·소유권은</text>
<text text-anchor="middle" x="615" y="-95.8" font-family="Noto Sans CJK KR" font-size="14.00" fill="#14343b">별도로 결정</text>
</g>
<!-- n1&#45;&gt;n5 -->
<g id="edge5" class="edge">
<title>n1&#45;&gt;n5</title>
<path fill="none" stroke="#58717a" d="M275.68,-175.39C332.4,-172.77 424.52,-165.91 502,-148 515.83,-144.8 530.28,-140.38 544.04,-135.61"/>
<polygon fill="#58717a" stroke="#58717a" points="544.96,-138.07 551.16,-133.09 543.21,-133.12 544.96,-138.07"/>
</g>
<!-- n3 -->
<g id="node4" class="node">
<title>n3</title>
<path fill="#edf5f7" stroke="#267882" d="M490,-133C490,-133 353,-133 353,-133 347,-133 341,-127 341,-121 341,-121 341,-93 341,-93 341,-87 347,-81 353,-81 353,-81 490,-81 490,-81 496,-81 502,-87 502,-93 502,-93 502,-121 502,-121 502,-127 496,-133 490,-133"/>
<text text-anchor="middle" x="421.5" y="-110.8" font-family="Noto Sans CJK KR" font-size="14.00" fill="#14343b">가능</text>
<text text-anchor="middle" x="421.5" y="-95.8" font-family="Noto Sans CJK KR" font-size="14.00" fill="#14343b">카파 / 스트림 투영 검토</text>
</g>
<!-- n2&#45;&gt;n3 -->
<g id="edge3" class="edge">
<title>n2&#45;&gt;n3</title>
<path fill="none" stroke="#58717a" d="M301.04,-100.36C311.55,-100.95 322.39,-101.55 333.04,-102.14"/>
<polygon fill="#58717a" stroke="#58717a" points="333.12,-104.77 340.76,-102.57 333.42,-99.53 333.12,-104.77"/>
</g>
<!-- n4 -->
<g id="node5" class="node">
<title>n4</title>
<path fill="#edf5f7" stroke="#267882" d="M471.5,-52C471.5,-52 371.5,-52 371.5,-52 365.5,-52 359.5,-46 359.5,-40 359.5,-40 359.5,-12 359.5,-12 359.5,-6 365.5,0 371.5,0 371.5,0 471.5,0 471.5,0 477.5,0 483.5,-6 483.5,-12 483.5,-12 483.5,-40 483.5,-40 483.5,-46 477.5,-52 471.5,-52"/>
<text text-anchor="middle" x="421.5" y="-29.8" font-family="Noto Sans CJK KR" font-size="14.00" fill="#14343b">재계산 별도 필요</text>
<text text-anchor="middle" x="421.5" y="-14.8" font-family="Noto Sans CJK KR" font-size="14.00" fill="#14343b">람다 비용 검토</text>
</g>
<!-- n2&#45;&gt;n4 -->
<g id="edge4" class="edge">
<title>n2&#45;&gt;n4</title>
<path fill="none" stroke="#58717a" d="M296.23,-69.93C314.57,-63.45 334.16,-56.52 352.23,-50.14"/>
<polygon fill="#58717a" stroke="#58717a" points="353.14,-52.6 359.34,-47.62 351.39,-47.65 353.14,-52.6"/>
</g>
<!-- n3&#45;&gt;n5 -->
<g id="edge6" class="edge">
<title>n3&#45;&gt;n5</title>
<path fill="none" stroke="#58717a" d="M502.05,-107C512.63,-107 523.49,-107 534.08,-107"/>
<polygon fill="#58717a" stroke="#58717a" points="534.24,-109.63 541.74,-107 534.24,-104.38 534.24,-109.63"/>
</g>
<!-- n4&#45;&gt;n5 -->
<g id="edge7" class="edge">
<title>n4&#45;&gt;n5</title>
<path fill="none" stroke="#58717a" d="M483.62,-51.85C503.3,-60.18 525.24,-69.46 545.42,-77.99"/>
<polygon fill="#58717a" stroke="#58717a" points="544.55,-80.47 552.48,-80.98 546.59,-75.64 544.55,-80.47"/>
</g>
</g>
</svg>
