<?xml version="1.0" encoding="UTF-8" standalone="no"?>
<!DOCTYPE svg PUBLIC "-//W3C//DTD SVG 1.1//EN"
 "http://www.w3.org/Graphics/SVG/1.1/DTD/svg11.dtd">
<!-- Generated by graphviz version 2.43.0 (0)
 -->
<!-- Title: G Pages: 1 -->
<svg width="804pt" height="176pt"
 viewBox="0.00 0.00 804.20 176.20" xmlns="http://www.w3.org/2000/svg" xmlns:xlink="http://www.w3.org/1999/xlink">
<g id="graph0" class="graph" transform="scale(1 1) rotate(0) translate(21.6 154.6)">
<title>레이크하우스의 역할 구분</title><desc>교재 저자 작성 개념도. 레이크하우스의 역할 구분의 구성과 흐름.</desc>
<polygon fill="#ffffff" stroke="transparent" points="-21.6,21.6 -21.6,-154.6 782.6,-154.6 782.6,21.6 -21.6,21.6"/>
<!-- n0 -->
<g id="node1" class="node">
<title>n0</title>
<path fill="#edf5f7" stroke="#267882" d="M83,-133C83,-133 12,-133 12,-133 6,-133 0,-127 0,-121 0,-121 0,-93 0,-93 0,-87 6,-81 12,-81 12,-81 83,-81 83,-81 89,-81 95,-87 95,-93 95,-93 95,-121 95,-121 95,-127 89,-133 83,-133"/>
<text text-anchor="middle" x="47.5" y="-110.8" font-family="Noto Sans CJK KR" font-size="14.00" fill="#14343b">객체 저장소</text>
<text text-anchor="middle" x="47.5" y="-95.8" font-family="Noto Sans CJK KR" font-size="14.00" fill="#14343b">데이터 파일</text>
</g>
<!-- n1 -->
<g id="node2" class="node">
<title>n1</title>
<path fill="#edf5f7" stroke="#267882" d="M258,-133C258,-133 148,-133 148,-133 142,-133 136,-127 136,-121 136,-121 136,-93 136,-93 136,-87 142,-81 148,-81 148,-81 258,-81 258,-81 264,-81 270,-87 270,-93 270,-93 270,-121 270,-121 270,-127 264,-133 258,-133"/>
<text text-anchor="middle" x="203" y="-110.8" font-family="Noto Sans CJK KR" font-size="14.00" fill="#14343b">테이블 메타데이터</text>
<text text-anchor="middle" x="203" y="-95.8" font-family="Noto Sans CJK KR" font-size="14.00" fill="#14343b">스냅샷·스키마</text>
</g>
<!-- n0&#45;&gt;n1 -->
<g id="edge1" class="edge">
<title>n0&#45;&gt;n1</title>
<path fill="none" stroke="#58717a" d="M95.39,-107C105.78,-107 117.03,-107 128.2,-107"/>
<polygon fill="#58717a" stroke="#58717a" points="128.4,-109.63 135.9,-107 128.4,-104.38 128.4,-109.63"/>
</g>
<!-- n2 -->
<g id="node3" class="node">
<title>n2</title>
<path fill="#edf5f7" stroke="#267882" d="M423.5,-133C423.5,-133 327.5,-133 327.5,-133 321.5,-133 315.5,-127 315.5,-121 315.5,-121 315.5,-93 315.5,-93 315.5,-87 321.5,-81 327.5,-81 327.5,-81 423.5,-81 423.5,-81 429.5,-81 435.5,-87 435.5,-93 435.5,-93 435.5,-121 435.5,-121 435.5,-127 429.5,-133 423.5,-133"/>
<text text-anchor="middle" x="375.5" y="-110.8" font-family="Noto Sans CJK KR" font-size="14.00" fill="#14343b">카탈로그</text>
<text text-anchor="middle" x="375.5" y="-95.8" font-family="Noto Sans CJK KR" font-size="14.00" fill="#14343b">위치·권한·이름</text>
</g>
<!-- n1&#45;&gt;n2 -->
<g id="edge2" class="edge">
<title>n1&#45;&gt;n2</title>
<path fill="none" stroke="#58717a" d="M270.41,-107C282.72,-107 295.58,-107 307.9,-107"/>
<polygon fill="#58717a" stroke="#58717a" points="307.99,-109.63 315.49,-107 307.99,-104.38 307.99,-109.63"/>
</g>
<!-- n3 -->
<g id="node4" class="node">
<title>n3</title>
<path fill="#edf5f7" stroke="#267882" d="M637,-68C637,-68 535,-68 535,-68 529,-68 523,-62 523,-56 523,-56 523,-28 523,-28 523,-22 529,-16 535,-16 535,-16 637,-16 637,-16 643,-16 649,-22 649,-28 649,-28 649,-56 649,-56 649,-62 643,-68 637,-68"/>
<text text-anchor="middle" x="586" y="-45.8" font-family="Noto Sans CJK KR" font-size="14.00" fill="#14343b">쿼리 엔진</text>
<text text-anchor="middle" x="586" y="-30.8" font-family="Noto Sans CJK KR" font-size="14.00" fill="#14343b">Trino / Spark 등</text>
</g>
<!-- n2&#45;&gt;n3 -->
<g id="edge3" class="edge">
<title>n2&#45;&gt;n3</title>
<path fill="none" stroke="#58717a" d="M435.69,-88.55C460.56,-80.79 489.67,-71.72 515.55,-63.65"/>
<polygon fill="#58717a" stroke="#58717a" points="516.37,-66.14 522.75,-61.41 514.81,-61.13 516.37,-66.14"/>
</g>
<!-- n5 -->
<g id="node6" class="node">
<title>n5</title>
<path fill="#edf5f7" stroke="#267882" d="M749,-68C749,-68 702,-68 702,-68 696,-68 690,-62 690,-56 690,-56 690,-28 690,-28 690,-22 696,-16 702,-16 702,-16 749,-16 749,-16 755,-16 761,-22 761,-28 761,-28 761,-56 761,-56 761,-62 755,-68 749,-68"/>
<text text-anchor="middle" x="725.5" y="-45.8" font-family="Noto Sans CJK KR" font-size="14.00" fill="#14343b">소비자</text>
<text text-anchor="middle" x="725.5" y="-30.8" font-family="Noto Sans CJK KR" font-size="14.00" fill="#14343b">BI / ML</text>
</g>
<!-- n3&#45;&gt;n5 -->
<g id="edge5" class="edge">
<title>n3&#45;&gt;n5</title>
<path fill="none" stroke="#58717a" d="M649.31,-42C660.41,-42 671.73,-42 682.11,-42"/>
<polygon fill="#58717a" stroke="#58717a" points="682.35,-44.63 689.85,-42 682.35,-39.38 682.35,-44.63"/>
</g>
<!-- n4 -->
<g id="node5" class="node">
<title>n4</title>
<path fill="#edf5f7" stroke="#267882" d="M428,-52C428,-52 323,-52 323,-52 317,-52 311,-46 311,-40 311,-40 311,-12 311,-12 311,-6 317,0 323,0 323,0 428,0 428,0 434,0 440,-6 440,-12 440,-12 440,-40 440,-40 440,-46 434,-52 428,-52"/>
<text text-anchor="middle" x="375.5" y="-29.8" font-family="Noto Sans CJK KR" font-size="14.00" fill="#14343b">dbt</text>
<text text-anchor="middle" x="375.5" y="-14.8" font-family="Noto Sans CJK KR" font-size="14.00" fill="#14343b">SQL 변환·테스트</text>
</g>
<!-- n4&#45;&gt;n3 -->
<g id="edge4" class="edge">
<title>n4&#45;&gt;n3</title>
<path fill="none" stroke="#58717a" d="M440.19,-30.89C463.86,-32.7 490.83,-34.77 515.02,-36.63"/>
<polygon fill="#58717a" stroke="#58717a" points="515.1,-39.27 522.77,-37.22 515.5,-34.03 515.1,-39.27"/>
<text text-anchor="middle" x="481.5" y="-39.2" font-family="Noto Sans CJK KR" font-size="11.00">SQL 요청</text>
</g>
</g>
</svg>
