<?xml version="1.0" encoding="UTF-8" standalone="no"?>
<!DOCTYPE svg PUBLIC "-//W3C//DTD SVG 1.1//EN"
 "http://www.w3.org/Graphics/SVG/1.1/DTD/svg11.dtd">
<!-- Generated by graphviz version 2.43.0 (0)
 -->
<!-- Title: G Pages: 1 -->
<svg width="527pt" height="257pt"
 viewBox="0.00 0.00 527.20 257.20" xmlns="http://www.w3.org/2000/svg" xmlns:xlink="http://www.w3.org/1999/xlink">
<g id="graph0" class="graph" transform="scale(1 1) rotate(0) translate(21.6 235.6)">
<title>데이터 메시의 계약 경계</title><desc>교재 저자 작성 개념도. 데이터 메시의 계약 경계의 구성과 흐름.</desc>
<polygon fill="#ffffff" stroke="transparent" points="-21.6,21.6 -21.6,-235.6 505.6,-235.6 505.6,21.6 -21.6,21.6"/>
<!-- n0 -->
<g id="node1" class="node">
<title>n0</title>
<path fill="#edf5f7" stroke="#267882" d="M337,-214C337,-214 214,-214 214,-214 208,-214 202,-208 202,-202 202,-202 202,-174 202,-174 202,-168 208,-162 214,-162 214,-162 337,-162 337,-162 343,-162 349,-168 349,-174 349,-174 349,-202 349,-202 349,-208 343,-214 337,-214"/>
<text text-anchor="middle" x="275.5" y="-191.8" font-family="Noto Sans CJK KR" font-size="14.00" fill="#14343b">주문 도메인</text>
<text text-anchor="middle" x="275.5" y="-176.8" font-family="Noto Sans CJK KR" font-size="14.00" fill="#14343b">소유자 + 공개 데이터</text>
</g>
<!-- n5 -->
<g id="node6" class="node">
<title>n5</title>
<path fill="#edf5f7" stroke="#267882" d="M472,-125.5C472,-125.5 401,-125.5 401,-125.5 395,-125.5 389,-119.5 389,-113.5 389,-113.5 389,-100.5 389,-100.5 389,-94.5 395,-88.5 401,-88.5 401,-88.5 472,-88.5 472,-88.5 478,-88.5 484,-94.5 484,-100.5 484,-100.5 484,-113.5 484,-113.5 484,-119.5 478,-125.5 472,-125.5"/>
<text text-anchor="middle" x="436.5" y="-103.3" font-family="Noto Sans CJK KR" font-size="14.00" fill="#14343b">분석 소비자</text>
</g>
<!-- n0&#45;&gt;n5 -->
<g id="edge7" class="edge">
<title>n0&#45;&gt;n5</title>
<path fill="none" stroke="#58717a" d="M327.68,-161.93C348.47,-151.33 372.23,-139.23 392.15,-129.08"/>
<polygon fill="#58717a" stroke="#58717a" points="393.53,-131.33 399.02,-125.58 391.15,-126.65 393.53,-131.33"/>
</g>
<!-- n1 -->
<g id="node2" class="node">
<title>n1</title>
<path fill="#edf5f7" stroke="#267882" d="M337,-133C337,-133 214,-133 214,-133 208,-133 202,-127 202,-121 202,-121 202,-93 202,-93 202,-87 208,-81 214,-81 214,-81 337,-81 337,-81 343,-81 349,-87 349,-93 349,-93 349,-121 349,-121 349,-127 343,-133 337,-133"/>
<text text-anchor="middle" x="275.5" y="-110.8" font-family="Noto Sans CJK KR" font-size="14.00" fill="#14343b">고객 도메인</text>
<text text-anchor="middle" x="275.5" y="-95.8" font-family="Noto Sans CJK KR" font-size="14.00" fill="#14343b">소유자 + 공개 데이터</text>
</g>
<!-- n1&#45;&gt;n5 -->
<g id="edge8" class="edge">
<title>n1&#45;&gt;n5</title>
<path fill="none" stroke="#58717a" d="M349.02,-107C359.72,-107 370.6,-107 380.86,-107"/>
<polygon fill="#58717a" stroke="#58717a" points="381.07,-109.63 388.57,-107 381.07,-104.38 381.07,-109.63"/>
</g>
<!-- n2 -->
<g id="node3" class="node">
<title>n2</title>
<path fill="#edf5f7" stroke="#267882" d="M337,-52C337,-52 214,-52 214,-52 208,-52 202,-46 202,-40 202,-40 202,-12 202,-12 202,-6 208,0 214,0 214,0 337,0 337,0 343,0 349,-6 349,-12 349,-12 349,-40 349,-40 349,-46 343,-52 337,-52"/>
<text text-anchor="middle" x="275.5" y="-29.8" font-family="Noto Sans CJK KR" font-size="14.00" fill="#14343b">구독 도메인</text>
<text text-anchor="middle" x="275.5" y="-14.8" font-family="Noto Sans CJK KR" font-size="14.00" fill="#14343b">소유자 + 공개 데이터</text>
</g>
<!-- n2&#45;&gt;n5 -->
<g id="edge9" class="edge">
<title>n2&#45;&gt;n5</title>
<path fill="none" stroke="#58717a" d="M327.68,-52.07C348.47,-62.67 372.23,-74.77 392.15,-84.92"/>
<polygon fill="#58717a" stroke="#58717a" points="391.15,-87.35 399.02,-88.42 393.53,-82.67 391.15,-87.35"/>
</g>
<!-- n3 -->
<g id="node4" class="node">
<title>n3</title>
<path fill="#edf5f7" stroke="#267882" d="M150,-173C150,-173 12,-173 12,-173 6,-173 0,-167 0,-161 0,-161 0,-133 0,-133 0,-127 6,-121 12,-121 12,-121 150,-121 150,-121 156,-121 162,-127 162,-133 162,-133 162,-161 162,-161 162,-167 156,-173 150,-173"/>
<text text-anchor="middle" x="81" y="-150.8" font-family="Noto Sans CJK KR" font-size="14.00" fill="#14343b">공통 셀프서비스 플랫폼</text>
<text text-anchor="middle" x="81" y="-135.8" font-family="Noto Sans CJK KR" font-size="14.00" fill="#14343b">배포·관측·권한</text>
</g>
<!-- n3&#45;&gt;n0 -->
<g id="edge1" class="edge">
<title>n3&#45;&gt;n0</title>
<path fill="none" stroke="#58717a" d="M162.24,-164.09C172.79,-166.34 183.59,-168.64 194.14,-170.88"/>
<polygon fill="#58717a" stroke="#58717a" points="193.88,-173.51 201.76,-172.51 194.97,-168.38 193.88,-173.51"/>
</g>
<!-- n3&#45;&gt;n1 -->
<g id="edge2" class="edge">
<title>n3&#45;&gt;n1</title>
<path fill="none" stroke="#58717a" d="M162.24,-130.33C172.79,-128.14 183.59,-125.89 194.14,-123.7"/>
<polygon fill="#58717a" stroke="#58717a" points="194.95,-126.21 201.76,-122.11 193.88,-121.07 194.95,-126.21"/>
</g>
<!-- n3&#45;&gt;n2 -->
<g id="edge3" class="edge">
<title>n3&#45;&gt;n2</title>
<path fill="none" stroke="#58717a" d="M139.7,-120.98C147.43,-116.69 155.07,-111.99 162,-107 182.4,-92.3 181.99,-82.22 202,-67 206.96,-63.23 212.31,-59.56 217.78,-56.07"/>
<polygon fill="#58717a" stroke="#58717a" points="219.24,-58.25 224.23,-52.07 216.47,-53.79 219.24,-58.25"/>
</g>
<!-- n4 -->
<g id="node5" class="node">
<title>n4</title>
<path fill="#edf5f7" stroke="#267882" d="M143.5,-92C143.5,-92 18.5,-92 18.5,-92 12.5,-92 6.5,-86 6.5,-80 6.5,-80 6.5,-52 6.5,-52 6.5,-46 12.5,-40 18.5,-40 18.5,-40 143.5,-40 143.5,-40 149.5,-40 155.5,-46 155.5,-52 155.5,-52 155.5,-80 155.5,-80 155.5,-86 149.5,-92 143.5,-92"/>
<text text-anchor="middle" x="81" y="-69.8" font-family="Noto Sans CJK KR" font-size="14.00" fill="#14343b">연합 거버넌스</text>
<text text-anchor="middle" x="81" y="-54.8" font-family="Noto Sans CJK KR" font-size="14.00" fill="#14343b">공통 키·정책·호환성</text>
</g>
<!-- n4&#45;&gt;n0 -->
<g id="edge4" class="edge">
<title>n4&#45;&gt;n0</title>
<path fill="none" stroke="#58717a" d="M138.89,-92.23C146.91,-96.76 154.84,-101.72 162,-107 182.49,-122.11 181.75,-132.57 202,-148 206.4,-151.35 211.12,-154.6 215.96,-157.7"/>
<polygon fill="#58717a" stroke="#58717a" points="214.86,-160.11 222.62,-161.84 217.63,-155.65 214.86,-160.11"/>
</g>
<!-- n4&#45;&gt;n1 -->
<g id="edge5" class="edge">
<title>n4&#45;&gt;n1</title>
<path fill="none" stroke="#58717a" d="M155.6,-81.68C168.29,-84.38 181.53,-87.2 194.38,-89.94"/>
<polygon fill="#58717a" stroke="#58717a" points="194.01,-92.54 201.89,-91.54 195.11,-87.41 194.01,-92.54"/>
</g>
<!-- n4&#45;&gt;n2 -->
<g id="edge6" class="edge">
<title>n4&#45;&gt;n2</title>
<path fill="none" stroke="#58717a" d="M155.6,-50.71C168.29,-48.07 181.53,-45.32 194.38,-42.65"/>
<polygon fill="#58717a" stroke="#58717a" points="195.09,-45.18 201.89,-41.09 194.02,-40.04 195.09,-45.18"/>
</g>
</g>
</svg>
